<svg width="36" height="39" viewBox="0 0 36 39" fill="none" xmlns="http://www.w3.org/2000/svg">
<path d="M17.5523 38.9259C16.8476 38.7633 16.1972 38.5464 15.7635 37.9502C15.4925 37.5708 15.2757 37.0829 15.0589 36.6493C14.9505 36.4324 14.8963 36.324 14.6794 36.2698C13.2701 35.9988 11.8608 35.511 10.5599 34.8605C8.50006 33.8306 6.71129 32.4213 5.24775 30.6325C5.08513 30.4157 4.92252 30.4157 4.7057 30.4699C3.35057 30.9577 1.88703 30.3615 1.18237 29.1148C0.477699 27.8138 0.748725 26.2419 1.94124 25.3746C2.15806 25.212 2.21226 25.0494 2.10385 24.7783C1.12816 21.5802 1.12816 18.3279 2.10385 15.1298C2.15806 14.913 2.15806 14.7504 1.94124 14.5878C0.748725 13.7205 0.423494 12.1486 1.12816 10.8476C1.83283 9.54671 3.29637 9.00466 4.7057 9.4925C4.97672 9.60091 5.08513 9.4925 5.24775 9.32989C6.71129 7.54112 8.50006 6.13179 10.5599 5.10189C11.8066 4.45143 13.1617 4.01779 14.5168 3.74676C14.8421 3.69256 15.0589 3.58415 15.1673 3.1505C15.3841 1.84958 16.6308 0.9823 17.986 0.9823C19.3411 0.9823 20.5336 1.95799 20.8046 3.25891C20.8588 3.58415 21.0214 3.69256 21.2925 3.74676C23.5149 4.1804 25.5205 5.04768 27.3634 6.34861C28.6102 7.21589 29.6943 8.19158 30.6157 9.32989C30.7784 9.54671 30.941 9.60091 31.212 9.4925C32.5129 9.00466 34.0307 9.60091 34.7353 10.7934C35.44 12.0943 35.169 13.6663 34.0307 14.5336C33.8138 14.6962 33.7596 14.8588 33.8138 15.1298C34.7895 18.3279 34.7895 21.5802 33.8138 24.7783C33.7596 24.9952 33.7596 25.1578 33.9765 25.3204C35.0606 26.1335 35.44 27.6512 34.8979 28.8979C34.3017 30.1989 32.8924 30.9577 31.5914 30.5783C30.9952 30.4157 30.7242 30.5783 30.3447 31.0119C27.9597 33.7222 24.9242 35.4568 21.4009 36.2156C21.0756 36.2698 20.8588 36.4324 20.8046 36.8119C20.4794 37.9502 19.7205 38.6006 18.6364 38.9259C18.528 38.9259 18.4738 38.9801 18.3654 38.9801C18.0402 38.9259 17.8233 38.9259 17.5523 38.9259ZM17.9317 11.6607C13.3785 11.6607 9.63836 15.4009 9.63836 19.9541C9.63836 24.5073 13.3785 28.2475 17.9317 28.2475C22.485 28.2475 26.2251 24.5073 26.2251 19.9541C26.2251 15.4009 22.485 11.6607 17.9317 11.6607ZM15.1131 4.83086C11.3729 5.53553 8.33744 7.3785 5.95242 10.3056C6.60288 11.1187 6.8197 11.9859 6.60288 12.9616C6.60288 13.07 6.71129 13.1785 6.76549 13.2327C7.47016 13.6121 8.17483 13.9915 8.87949 14.371C9.20472 14.5336 9.52995 14.7504 9.85518 14.913C11.8066 12.0401 14.4626 10.4682 17.9317 10.4682C21.4009 10.4682 24.0027 12.0943 25.9541 14.913C26.8756 14.4252 27.7429 13.9373 28.6102 13.4495C29.0438 13.2327 29.3148 13.0158 29.2064 12.4196C29.0438 11.6065 29.369 10.9018 29.9111 10.2514C27.5261 7.3243 24.4906 5.48132 20.7504 4.77666C20.371 5.91497 19.6121 6.56543 18.4738 6.83645C18.4738 7.64953 18.4738 8.46261 18.4738 9.22148C18.0944 9.22148 17.7149 9.22148 17.2813 9.22148C17.2813 8.4084 17.2813 7.59532 17.2813 6.83645C16.2514 6.56543 15.4925 5.91497 15.1131 4.83086ZM5.95242 29.6026C8.39165 32.5297 11.3729 34.3727 15.1131 35.0773C15.4925 33.9932 16.2514 33.2885 17.3897 33.0175C17.3897 32.2044 17.3897 31.3914 17.3897 30.6325C17.8233 30.6325 18.1486 30.6325 18.5822 30.6325C18.5822 31.4456 18.5822 32.2586 18.5822 33.0175C19.7205 33.2885 20.4252 33.9932 20.8046 35.0773C24.5448 34.3184 27.5803 32.5297 29.9653 29.6026C29.2606 28.5185 29.2064 28.1933 29.3148 26.9466C29.3148 26.8381 29.2606 26.7297 29.2064 26.6755C28.1765 26.0793 27.0924 25.5372 26.0083 24.941C24.0569 27.8138 21.4009 29.3858 17.9317 29.3858C14.4626 29.3858 11.8066 27.7596 9.85518 24.941C8.77108 25.5372 7.74118 26.0793 6.71129 26.6755C6.65708 26.7297 6.54867 26.8381 6.60288 26.9466C6.8197 27.9764 6.54867 28.8437 5.95242 29.6026ZM9.31313 23.9111C8.17483 21.255 8.17483 18.599 9.31313 15.9429C8.17483 15.3467 7.09072 14.6962 5.95242 14.0999C5.19354 14.913 4.32626 15.2382 3.24216 15.1298C2.26647 18.3279 2.26647 21.4718 3.24216 24.6699C4.32626 24.5615 5.19354 24.941 5.95242 25.6998C7.09072 25.1578 8.17483 24.5615 9.31313 23.9111ZM29.9111 25.754C30.6157 25.0494 31.4288 24.6157 32.4587 24.6699C32.5129 24.6699 32.6755 24.5073 32.7297 24.4531C33.2718 22.7185 33.4886 20.984 33.3802 19.141C33.326 17.7859 33.1092 16.485 32.6213 15.184C31.5914 15.2924 30.7242 14.9672 30.0195 14.2626C29.9653 14.2083 29.8027 14.2083 29.6943 14.2626C29.2064 14.5336 28.7186 14.8046 28.2849 15.0214C27.7429 15.3467 27.1466 15.6177 26.6046 15.9429C27.7429 18.599 27.7429 21.255 26.6046 23.9111C27.6887 24.5615 28.7728 25.1578 29.9111 25.754ZM17.9317 5.69814C18.9074 5.69814 19.7205 4.88507 19.7205 3.96358C19.7205 2.98789 18.9616 2.17481 17.986 2.17481C17.0103 2.17481 16.1972 2.98789 16.1972 3.96358C16.143 4.88507 16.9561 5.69814 17.9317 5.69814ZM5.46457 12.257C5.46457 11.2813 4.65149 10.4682 3.6758 10.4682C2.70011 10.4682 1.88703 11.2813 1.88703 12.257C1.88703 13.2327 2.70011 13.9915 3.6758 13.9915C4.7057 13.9915 5.46457 13.1784 5.46457 12.257ZM33.9223 12.257C33.9223 11.2813 33.1092 10.4682 32.1877 10.4682C31.212 10.4682 30.3989 11.2271 30.3989 12.2028C30.3989 13.1785 31.212 13.9915 32.1877 13.9915C33.1092 14.0457 33.9223 13.2327 33.9223 12.257ZM5.46457 27.6512C5.46457 26.6755 4.65149 25.8624 3.6758 25.8624C2.70011 25.8624 1.88703 26.6755 1.88703 27.6512C1.88703 28.6269 2.70011 29.44 3.6758 29.44C4.7057 29.44 5.46457 28.6269 5.46457 27.6512ZM33.9223 27.6512C33.9223 26.6755 33.1092 25.8624 32.1877 25.8624C31.212 25.8624 30.3989 26.6213 30.3989 27.597C30.3989 28.5727 31.212 29.3858 32.1877 29.3858C33.1092 29.44 33.9223 28.6269 33.9223 27.6512ZM17.9317 34.21C16.9561 34.21 16.143 35.0231 16.143 35.9446C16.143 36.9203 16.9561 37.7334 17.9317 37.7334C18.9074 37.7334 19.7205 36.9203 19.7205 35.9446C19.7205 34.9689 18.9074 34.21 17.9317 34.21Z" fill="white"/>
<path d="M16.034 19.249C14.8956 18.219 14.733 16.9723 15.0583 15.617C15.3835 14.2076 16.7929 13.2861 18.1481 13.3945C19.7202 13.5571 20.7501 14.7497 20.8586 16.3218C20.9128 17.4059 20.6959 18.3817 19.7744 19.1948C19.937 19.3032 20.0996 19.4658 20.2623 19.5742C21.1296 20.1163 22.0511 20.6584 22.9185 21.1463C23.1353 21.2547 23.2437 21.4173 23.1895 21.6884C23.1895 22.2305 23.1895 22.7725 23.1895 23.2604C23.2437 23.9651 22.8643 24.453 22.268 24.6698C21.6717 24.8867 21.0212 25.0493 20.4249 25.1035C18.4734 25.2661 16.4677 25.3203 14.5162 24.9951C14.1909 24.9409 13.8657 24.8324 13.5404 24.724C12.8899 24.453 12.5105 23.9651 12.5647 23.2604C12.5647 22.7183 12.5647 22.1762 12.5647 21.6342C12.5647 21.4173 12.6189 21.3089 12.7815 21.2005C13.7031 20.6584 14.5704 20.1163 15.4919 19.5742C15.7088 19.52 15.8714 19.4116 16.034 19.249ZM17.6061 24.1277C18.6902 24.0735 19.4491 24.0735 20.2081 24.0193C20.6959 23.9651 21.238 23.8567 21.7259 23.7483C21.9969 23.6941 22.0511 23.5315 22.0511 23.2604C22.2138 22.3931 21.8885 21.7968 21.0212 21.4715C20.9128 21.4173 20.8044 21.3631 20.7501 21.3089C20.0996 20.8752 19.4491 20.3874 18.7986 19.9537C18.7444 19.8995 18.5818 19.8995 18.4734 19.8995C18.0397 19.8995 17.6603 19.8995 17.2266 19.8995C17.1182 19.8995 16.9556 19.8995 16.9014 19.9537C16.1966 20.7126 15.2751 21.1463 14.4078 21.6342C13.8657 21.9594 13.5947 22.2847 13.7031 22.9352C13.7573 23.6941 13.7573 23.6941 14.462 23.9109C14.5162 23.9109 14.5162 23.9109 14.5704 23.9109C15.763 23.9651 16.8471 24.0735 17.6061 24.1277ZM16.1424 16.647C16.1424 16.8096 16.1424 16.9722 16.1424 17.1349C16.1966 18.0564 16.9556 18.7069 17.8229 18.7611C18.6902 18.8153 19.5034 18.219 19.6118 17.3517C19.666 16.8638 19.666 16.376 19.5576 15.9423C19.2865 14.8581 17.9855 14.316 17.0098 14.8581C16.4135 15.2376 16.1424 15.8881 16.1424 16.647Z" fill="white"/>
<path d="M18.528 4.50532C18.1486 4.50532 17.7691 4.50532 17.3896 4.50532C17.3896 4.12586 17.3896 3.7464 17.3896 3.36694C17.7691 3.36694 18.1486 3.36694 18.528 3.36694C18.528 3.7464 18.528 4.12586 18.528 4.50532Z" fill="white"/>
<path d="M4.27119 12.7978C3.89173 12.7978 3.51227 12.7978 3.13281 12.7978C3.13281 12.4183 3.13281 12.0389 3.13281 11.6594C3.51227 11.6594 3.89173 11.6594 4.27119 11.6594C4.27119 12.0389 4.27119 12.4183 4.27119 12.7978Z" fill="white"/>
<path d="M32.7292 11.6594C32.7292 12.0389 32.7292 12.4183 32.7292 12.7978C32.3497 12.7978 31.9703 12.7978 31.5908 12.7978C31.5908 12.4183 31.5908 12.0389 31.5908 11.6594C31.9703 11.6594 32.3497 11.6594 32.7292 11.6594Z" fill="white"/>
<path d="M4.27119 28.2471C3.89173 28.2471 3.51227 28.2471 3.13281 28.2471C3.13281 27.8677 3.13281 27.4882 3.13281 27.1088C3.51227 27.1088 3.89173 27.1088 4.27119 27.1088C4.27119 27.4882 4.27119 27.8677 4.27119 28.2471Z" fill="white"/>
<path d="M32.7292 27.1088C32.7292 27.4882 32.7292 27.8677 32.7292 28.2471C32.3497 28.2471 31.9703 28.2471 31.5908 28.2471C31.5908 27.8677 31.5908 27.4882 31.5908 27.1088C31.9703 27.1088 32.3497 27.1088 32.7292 27.1088Z" fill="white"/>
<path d="M18.528 35.4022C18.528 35.7817 18.528 36.1611 18.528 36.5406C18.1486 36.5406 17.7691 36.5406 17.3896 36.5406C17.3896 36.1611 17.3896 35.7817 17.3896 35.4022C17.7691 35.4022 18.0944 35.4022 18.528 35.4022Z" fill="white"/>
</svg>
