<svg width="38" height="39" viewBox="0 0 38 39" fill="none" xmlns="http://www.w3.org/2000/svg">
<g clip-path="url(#clip0_1458_23935)">
<path d="M10.5641 37.9972C9.87526 37.6911 9.56913 37.2319 9.64566 36.4665C9.64566 36.0839 9.64566 35.6247 9.64566 35.242C9.49259 35.242 9.33953 35.242 9.18646 35.242C7.34966 35.242 5.5894 35.242 3.7526 35.242C2.8342 35.242 2.375 34.7828 2.375 33.8644C2.375 33.4817 2.375 33.0991 2.375 32.7164C2.375 32.3337 2.6046 32.1041 2.91073 32.1041C3.21687 32.1041 3.44647 32.3337 3.44647 32.7164C3.44647 33.0991 3.44647 33.4817 3.44647 33.8644C3.44647 34.0175 3.523 34.094 3.67607 34.094C5.66593 34.094 7.57926 34.094 9.64566 34.094C9.64566 32.8695 9.64566 31.7215 9.64566 30.5735C8.19153 29.6551 7.73233 29.0428 7.50273 27.3591C6.58433 27.3591 5.66593 27.2825 4.82406 27.3591C4.05873 27.4356 3.523 28.2775 3.44647 29.1193C3.44647 29.502 3.44647 29.8081 3.44647 30.1908C3.44647 30.5735 3.21687 30.8031 2.91073 30.8031C2.6046 30.8031 2.375 30.5735 2.375 30.1908C2.375 29.8081 2.375 29.3489 2.375 28.9663C2.45153 28.0479 2.91073 27.2825 3.67607 26.7468C3.7526 26.6703 3.82913 26.6703 3.90567 26.5937C3.59953 25.5988 3.21687 24.6804 2.98727 23.762C1.76273 18.8639 2.52807 14.3484 5.3598 10.1391C5.51286 9.90949 5.5894 9.75642 5.43633 9.45029C5.05366 8.68496 5.20673 7.76656 5.819 7.15429C6.43126 6.54203 7.27313 6.31243 8.115 6.69509C8.26806 6.84816 8.42113 6.77163 8.5742 6.61856C9.49259 6.00629 10.3345 5.39403 11.2529 4.78176C11.6355 4.55216 11.9417 4.62869 12.0947 4.93483C12.2478 5.24096 12.0947 5.47056 11.7886 5.70016C10.9467 6.31243 10.1049 6.84816 9.26299 7.46042C9.10993 7.53696 9.10993 7.69002 9.18646 7.84309C9.49259 8.60842 9.33953 9.37376 8.80379 9.90949C8.26806 10.5218 7.57926 10.7514 6.7374 10.5218C6.5078 10.4452 6.43126 10.5218 6.2782 10.6748C4.74753 12.8943 3.82913 15.3434 3.59953 18.0985C3.2934 20.8537 3.7526 23.4559 4.82406 25.9815C4.9006 26.2111 5.05366 26.2876 5.3598 26.2876C6.43126 26.2876 7.50273 26.2876 8.49766 26.2876C8.57419 25.9815 8.49766 25.8284 8.3446 25.6753C7.4262 24.91 6.81393 23.9916 6.66086 22.8436C6.66086 22.614 6.58433 22.5375 6.35473 22.4609C4.97713 22.0783 4.51793 20.3945 5.51286 19.3231C5.5894 19.2465 5.66593 19.0169 5.66593 18.8639C5.66593 17.7159 5.66593 16.6444 5.66593 15.4964C5.66593 13.8127 6.7374 12.5882 8.26806 12.282C8.49766 12.2055 8.80379 12.2055 9.03339 12.2055C10.1814 12.2055 11.3294 12.2055 12.4774 12.2055C13.2427 12.2055 14.0081 12.4351 14.6203 12.9708C14.6969 13.0474 14.8499 13.0474 14.9265 13.0474C15.6153 12.7412 16.3041 12.6647 17.0694 12.6647C17.4521 12.6647 17.7582 12.6647 18.1409 12.6647C18.447 12.6647 18.6766 12.8943 18.7531 13.2004C18.7531 13.5066 18.5235 13.7362 18.1409 13.7362C17.6051 13.7362 17.0694 13.7362 16.5337 13.7362C15.1561 13.7362 14.0081 14.8076 13.9315 16.1852C13.855 17.3332 13.9315 18.4812 13.9315 19.6292C13.9315 19.7057 13.9315 19.7057 13.9315 19.7823C14.2377 19.8588 14.2377 19.7057 14.3142 19.4761C14.4673 18.6343 14.7734 17.8689 15.2326 17.1801C15.5387 16.7975 15.6918 16.7209 16.151 16.874C17.6051 17.3332 18.9827 17.7159 20.5134 17.8689C20.8961 17.8689 21.3552 17.8689 21.7379 17.7924C21.9675 17.7159 22.2737 17.5628 22.4267 17.4097C22.7329 17.1036 23.1155 17.1036 23.3451 17.4863C23.7278 18.0985 24.0339 18.7873 24.1104 19.4761C24.1104 19.6292 24.187 19.8588 24.4166 19.7823C24.4166 19.7057 24.4166 19.6292 24.4166 19.5527C24.4166 18.7873 24.4166 18.022 24.4166 17.2567C24.4166 16.874 24.34 16.6444 23.8808 16.6444C23.5747 16.5679 23.4216 16.3383 23.4216 16.0322C23.4216 15.4199 23.1921 14.9607 22.8094 14.5015C22.3502 13.9658 21.7379 13.7362 21.1257 13.7362C20.8961 13.7362 20.6665 13.7362 20.5134 13.7362C20.2073 13.7362 19.9777 13.5066 19.9777 13.2004C19.9777 12.8943 20.2073 12.6647 20.5134 12.6647C21.3553 12.5882 22.1971 12.7412 22.8859 13.1239C23.6512 12.3586 24.5696 12.129 25.5646 12.2055C26.7126 12.2055 27.784 12.2055 28.932 12.2055C30.3862 12.2055 31.5342 13.1239 31.9168 14.5015C31.9168 14.578 31.9934 14.7311 32.1464 14.8076C32.6056 15.1138 32.8352 15.573 32.8352 16.1087C32.8352 16.9505 32.8352 17.8689 32.8352 18.7108C32.8352 18.8639 32.9118 19.0935 33.0648 19.17C34.0598 20.2415 33.6006 21.8487 32.223 22.3079C31.9934 22.3844 31.9934 22.4609 31.9168 22.614C31.6872 23.762 31.1515 24.7569 30.2331 25.5223C30.08 25.5988 30.08 25.8284 29.927 25.9815L30.0035 26.058C30.5392 26.058 30.9984 26.058 31.5342 26.058C32.0699 26.058 32.6822 26.058 33.2179 26.058C33.524 26.058 33.6006 25.9815 33.7536 25.7519C34.8251 23.2263 35.2078 20.6241 34.9782 17.9455C34.7486 15.2668 33.8302 12.8178 32.376 10.5983C32.223 10.3687 32.0699 10.2922 31.8403 10.3687C31.075 10.5983 30.3862 10.3687 29.8504 9.75642C29.3147 9.14416 29.1616 8.45536 29.4678 7.69002C29.3912 7.69002 29.3147 7.53696 29.1616 7.38389C26.9422 5.62363 24.4166 4.47563 21.5849 4.01643C21.2787 3.93989 21.1257 4.01643 20.9726 4.32256C20.2073 5.70016 18.2174 5.62363 17.4521 4.32256C17.299 4.09296 17.1459 4.01643 16.9163 4.09296C15.9979 4.32256 15.0795 4.55216 14.1611 4.78176C14.0081 4.85829 13.7019 4.85829 13.5489 4.78176C13.3958 4.70523 13.2427 4.47563 13.3193 4.32256C13.3958 4.16949 13.5489 3.86336 13.7019 3.86336C14.6203 3.55723 15.4622 3.40416 16.3806 3.17456C16.4571 3.17456 16.4571 3.17456 16.5337 3.17456C16.9929 3.17456 17.2225 3.0215 17.3755 2.5623C17.7582 1.6439 18.447 1.26123 19.3654 1.26123C20.2073 1.33776 20.8961 1.72043 21.2022 2.5623C21.3553 2.86843 21.5083 2.94496 21.8144 3.0215C24.8758 3.4807 27.5544 4.62869 29.927 6.61856C30.1566 6.77163 30.3096 6.84816 30.6158 6.69509C31.3811 6.38896 32.2995 6.61856 32.8352 7.23083C33.371 7.84309 33.524 8.76149 33.1414 9.52682C33.0648 9.67989 32.9883 9.83296 33.1414 10.0626C36.5854 15.1903 37.0446 20.6241 34.7486 26.3641C34.7486 26.4407 34.672 26.5172 34.672 26.5937C34.8251 26.6703 34.9016 26.7468 35.0547 26.8999C35.82 27.5121 36.2027 28.2775 36.2027 29.2724C36.2027 30.8031 36.2027 32.4103 36.2027 33.9409C36.2027 34.8593 35.7435 35.3185 34.8251 35.3185C32.9883 35.3185 31.228 35.3185 29.3912 35.3185C29.2382 35.3185 29.0851 35.3185 28.932 35.3185C28.932 35.7777 28.932 36.1604 28.932 36.5431C29.0086 37.3084 28.7024 37.7676 28.0136 38.0737C22.1206 37.9972 16.3806 37.9972 10.5641 37.9972ZM23.1155 29.2724C22.8859 31.7215 21.0491 33.0225 19.2889 33.0225C18.3705 33.0225 17.6051 32.7929 16.9163 32.1807C15.9214 31.4153 15.4622 30.4204 15.3857 29.1959C14.5438 29.1959 13.7785 29.1959 12.9366 29.1959C11.559 29.1959 10.7171 30.0377 10.7171 31.4153C10.7171 33.0991 10.7171 34.7828 10.7171 36.4665C10.7171 36.7727 10.7937 36.9257 11.1763 36.9257C14.3142 36.9257 17.4521 36.9257 20.5899 36.9257C22.8859 36.9257 25.1819 36.9257 27.4779 36.9257C27.631 36.9257 27.8606 37.0023 27.8606 36.6961C27.8606 34.8593 27.8606 33.0991 27.8606 31.2623C27.8606 30.2673 27.0187 29.3489 26.1003 29.3489C25.0288 29.1959 24.1104 29.2724 23.1155 29.2724ZM22.8859 18.7873C20.4369 19.6292 18.2939 18.7108 16.0745 18.1751C15.9979 18.2516 15.9214 18.3281 15.9214 18.4812C15.5387 19.0169 15.3857 19.6292 15.3857 20.2415C15.3857 21.5425 15.3091 22.8436 15.4622 24.0681C15.6918 26.058 17.5286 27.5121 19.5185 27.3591C21.5083 27.206 23.1155 25.5988 23.1155 23.6089C23.1155 22.4609 23.1155 21.3129 23.1155 20.1649C23.1155 19.7057 22.9624 19.2465 22.8859 18.7873ZM7.96193 17.6393C7.8854 18.0985 7.73233 18.4812 7.6558 18.8639C7.57926 20.0119 7.57926 21.2364 7.6558 22.3844C7.80886 24.4508 9.64566 25.8284 11.6355 25.5223C12.6305 25.3692 13.4723 24.7569 14.0081 23.9151C13.9315 23.9151 13.855 23.8385 13.855 23.8385C12.5539 23.3028 12.0947 22.0783 12.7835 20.8537C12.7835 20.7772 12.8601 20.7772 12.8601 20.7007C12.8601 19.9353 12.8601 19.2465 12.8601 18.4812C11.1763 18.4812 9.64566 18.0985 7.96193 17.6393ZM34.9782 34.1705C34.9782 32.4103 34.9782 30.7265 34.9782 29.0428C34.9782 28.2775 34.3659 27.5121 33.6006 27.4356C32.6822 27.3591 31.8403 27.4356 30.9219 27.4356C30.6923 29.1193 30.2331 29.8081 28.779 30.65C28.779 31.8745 28.779 33.0225 28.779 34.1705C30.9219 34.1705 32.9118 34.1705 34.9782 34.1705ZM24.4931 23.8385C24.4931 23.9151 24.5696 23.9916 24.5696 23.9916C25.335 25.1396 26.8656 25.7519 28.1667 25.4457C29.6208 25.0631 30.6923 23.9151 30.7688 22.4609C30.8454 21.3895 30.8454 20.2415 30.7688 19.17C30.7688 18.7873 30.6158 18.3281 30.6158 17.9455C28.8555 18.7873 27.2483 18.2516 25.5646 17.9455C25.5646 18.7108 25.5646 19.4761 25.5646 20.2415C25.5646 20.4711 25.6411 20.6241 25.7176 20.7772C26.2534 21.8487 25.8707 23.1497 24.7227 23.6089C24.6462 23.762 24.5696 23.8385 24.4931 23.8385ZM23.8043 13.8892C24.0339 14.425 24.2635 14.9607 24.4931 15.4964C24.5696 15.726 24.6462 15.8026 24.7992 15.9556C25.0288 16.1852 25.2584 16.4148 25.488 16.721C25.5646 16.7975 25.7176 16.9506 25.7942 17.0271C26.3299 17.1802 26.7891 17.3332 27.3248 17.3332C28.0902 17.4097 28.779 17.4097 29.5443 17.3332C29.7739 17.3332 29.927 17.0271 30.08 16.874C30.2331 16.7209 30.3862 16.4914 30.5392 16.4914C30.6923 16.4914 30.9219 16.6444 31.075 16.7975C31.3046 17.1036 31.4576 17.4097 31.6107 17.7924C31.6107 17.1802 31.6107 16.6444 31.6107 16.1852C31.6107 16.1087 31.4576 15.9556 31.3811 15.8791C30.9984 15.8026 30.8454 15.573 30.8454 15.1903C30.7688 14.1954 30.0035 13.43 29.0086 13.43C27.7075 13.43 26.4064 13.43 25.1054 13.43C24.5696 13.3535 24.1104 13.5831 23.8043 13.8892ZM6.81393 17.6393C6.967 17.4097 7.12006 17.1801 7.1966 16.9505C7.50273 16.4914 7.6558 16.4148 8.19153 16.5679C8.95686 16.7975 9.72219 16.9505 10.4875 17.1801C11.2529 17.3332 12.0947 17.4863 12.9366 17.3332C12.8601 16.0322 13.0131 14.8076 13.9315 13.8892C13.5489 13.5831 13.1662 13.43 12.707 13.43C11.4059 13.43 10.1814 13.43 8.88033 13.43C7.73233 13.43 6.89046 14.1954 6.81393 15.3434C6.7374 16.0322 6.81393 16.874 6.81393 17.6393ZM20.8195 28.2009C19.595 28.5071 19.2123 28.5836 17.6051 28.2009C17.8347 29.1193 17.299 29.3489 16.5337 29.1959C16.6102 30.7265 17.8347 31.9511 19.3654 31.9511C20.8961 31.8745 22.1206 30.65 22.0441 29.2724C21.7379 29.1959 21.3553 29.1959 21.2022 29.0428C20.8961 28.8897 20.8961 28.5071 20.8195 28.2009ZM10.0283 29.5785C10.411 29.1959 10.7937 28.8897 11.1763 28.5836C11.7886 28.2009 12.4009 28.1244 13.1662 28.1244C13.3193 28.1244 13.4723 28.0479 13.4723 27.9713C13.5489 27.8183 13.5489 27.5887 13.6254 27.2825C12.9366 27.3591 12.4774 27.206 12.5539 26.3641C11.559 26.6703 10.6406 26.6703 9.72219 26.4407C9.64566 26.7468 9.56913 27.0529 9.41606 27.206C9.26299 27.3591 8.88033 27.3591 8.65073 27.4356C8.57419 28.2775 9.18646 29.1959 10.0283 29.5785ZM25.9472 26.4407C25.7942 27.206 25.7942 27.206 24.9523 27.3591C24.8758 28.0479 24.9523 28.1244 25.6411 28.1244C26.483 28.1244 27.2483 28.354 27.8606 28.9663C28.0902 29.1193 28.2432 29.3489 28.4728 29.5785C29.3912 29.1959 30.08 28.1244 29.927 27.3591C29.0851 27.2825 29.0086 27.3591 28.932 26.4407C27.8606 26.7468 26.9422 26.6703 25.9472 26.4407ZM7.27313 9.60336C7.80886 9.60336 8.26806 9.14416 8.26806 8.60842C8.26806 8.07269 7.80886 7.61349 7.34966 7.61349C6.81393 7.61349 6.35473 7.99616 6.35473 8.53189C6.2782 9.14416 6.7374 9.60336 7.27313 9.60336ZM19.2123 4.24603C19.7481 4.24603 20.2073 3.78683 20.2073 3.2511C20.2073 2.71536 19.7481 2.3327 19.2123 2.25616C18.6766 2.25616 18.2174 2.71536 18.2174 3.2511C18.2939 3.86336 18.6766 4.24603 19.2123 4.24603ZM31.228 9.60336C31.7638 9.60336 32.223 9.14416 32.223 8.60842C32.223 8.07269 31.8403 7.69002 31.3046 7.61349C30.7688 7.61349 30.3096 7.99616 30.3096 8.53189C30.2331 9.14416 30.6923 9.60336 31.228 9.60336ZM16.4571 28.1244C16.5337 27.6652 16.3806 27.3591 16.0745 27.3591C15.6153 27.2825 15.1561 27.3591 14.6203 27.3591C14.6203 27.6652 14.5438 27.8948 14.5438 28.1244C15.2326 28.1244 15.8449 28.1244 16.4571 28.1244ZM23.8043 27.3591C23.4216 27.3591 23.039 27.3591 22.6563 27.3591C22.1206 27.3591 21.891 27.5887 22.0441 28.1244C22.6563 28.1244 23.2686 28.1244 23.9574 28.1244C23.8808 27.8183 23.8808 27.5887 23.8043 27.3591ZM24.8758 26.2111C24.8758 25.5223 24.187 25.4457 23.9574 24.9865C23.7278 25.4457 23.5747 25.7519 23.3451 26.2111C23.8808 26.2111 24.34 26.2111 24.8758 26.2111ZM15.0795 26.2111C14.8499 25.8284 14.6969 25.4457 14.4673 25.0631C14.2377 25.2927 14.0846 25.4457 13.855 25.5988C13.6254 25.7519 13.3958 25.9049 13.5489 26.2111C14.1611 26.2111 14.6203 26.2111 15.0795 26.2111ZM14.2377 22.7671C14.2377 22.1548 14.2377 21.6191 14.2377 21.0068C13.7785 21.0833 13.5489 21.3895 13.5489 21.7721C13.5489 22.2313 13.7785 22.614 14.2377 22.7671ZM24.187 21.0068C24.187 21.6191 24.187 22.1548 24.187 22.7671C24.6462 22.6905 24.8758 22.3079 24.8758 21.9252C24.9523 21.466 24.6462 21.1599 24.187 21.0068ZM6.58433 19.9353C6.20166 20.0884 6.0486 20.3945 6.0486 20.7007C6.0486 21.0068 6.20166 21.2364 6.58433 21.3895C6.58433 20.9303 6.58433 20.4711 6.58433 19.9353ZM31.9168 21.3895C32.2995 21.2364 32.4526 21.0068 32.4526 20.6241C32.4526 20.318 32.2995 20.0884 31.9168 19.9353C31.9168 20.4711 31.9168 20.9303 31.9168 21.3895Z" fill="white"/>
</g>
<defs>
<clipPath id="clip0_1458_23935">
<rect width="38" height="38" fill="white" transform="translate(0 0.66748)"/>
</clipPath>
</defs>
</svg>
