<svg width="351" height="346" viewBox="0 0 351 346" fill="none" xmlns="http://www.w3.org/2000/svg">
<path opacity="0.5" d="M316.606 65.6637C311.259 58.3294 265.488 -2.3291 191.297 0.626116C187.589 0.772803 115.231 4.60308 88.5432 52.1521C68.8012 87.3251 89.7027 118.531 65.6184 142.496C44.6271 163.377 18.842 149.555 5.94626 166.441C-13.6983 192.161 17.58 261.627 65.6513 300.369C115.282 340.37 210.232 369.717 284.036 316.348C366.885 256.428 366.049 133.487 316.606 65.6637Z" fill="url(#paint0_linear_1458_23843)" fill-opacity="0.5"/>
<g style="mix-blend-mode:soft-light">
<g style="mix-blend-mode:soft-light">
<path d="M85.6402 219.086C78.7474 219.08 71.8623 218.626 65.0283 217.728L65.108 217.12C109.407 222.901 137.866 208.394 140.98 206.712C125.41 182.45 136.415 146.751 136.529 146.394L137.113 146.579C137.001 146.935 125.999 182.634 141.673 206.656L141.849 206.926L141.569 207.088C141.318 207.228 120.411 219.086 85.6402 219.086Z" fill="white"/>
</g>
</g>
<path d="M113.002 188.082C112.571 188.081 112.156 187.921 111.838 187.631C111.519 187.341 111.32 186.943 111.279 186.514C109.762 170.591 104.57 155.461 96.6601 143.913C89.6533 133.682 81.3124 127.577 74.3423 127.577H74.3208C48.9352 127.626 43.6242 185.908 43.5736 186.504C43.5229 186.953 43.2991 187.364 42.9497 187.65C42.6003 187.937 42.1529 188.075 41.7029 188.037C41.2528 187.998 40.8356 187.786 40.5399 187.444C40.2443 187.102 40.0937 186.659 40.1202 186.208C40.3377 183.679 45.7726 124.172 74.3132 124.119H74.3435C82.5795 124.119 91.7537 130.62 99.5217 141.963C107.756 153.988 113.158 169.696 114.73 186.193C114.753 186.42 114.73 186.649 114.664 186.868C114.598 187.086 114.489 187.289 114.344 187.465C114.199 187.641 114.021 187.787 113.819 187.894C113.618 188.002 113.397 188.068 113.17 188.09C113.113 188.085 113.057 188.082 113.002 188.082Z" fill="url(#paint1_linear_1458_23843)"/>
<path d="M7.24446 308.033L40.6623 324.952L60.9164 262.819L27.5478 179.516L18.0878 181.835L3.73285 301.46C3.57218 302.784 3.82306 304.125 4.45135 305.301C5.07965 306.477 6.05488 307.431 7.24446 308.033Z" fill="url(#paint2_linear_1458_23843)"/>
<path style="mix-blend-mode:multiply" opacity="0.52" d="M60.9167 262.819L27.5482 179.516L21.969 180.889C21.3322 189.857 21.363 198.861 22.0614 207.824C24.297 236.184 31.7249 244.076 28.1311 263.861C25.1392 280.311 18.6054 282.544 19.1757 293.613C19.7978 305.666 28.2057 315.761 38.2019 323.698L40.6677 324.946L60.9167 262.819Z" fill="url(#paint3_linear_1458_23843)"/>
<path d="M27.5479 179.521H152.148L193.384 312.646L40.6623 324.951L27.5479 179.521Z" fill="url(#paint4_linear_1458_23843)"/>
<path d="M66.1465 190.931C65.7552 190.932 65.3753 190.8 65.0685 190.557C64.7617 190.314 64.5462 189.974 64.4571 189.593C64.1031 188.083 55.9165 152.416 67.4591 134.906C70.7671 129.889 75.3903 126.825 81.197 125.801C111.04 120.543 129.407 184.631 130.175 187.363C130.243 187.584 130.267 187.816 130.244 188.047C130.221 188.277 130.152 188.5 130.041 188.704C129.931 188.907 129.78 189.086 129.599 189.23C129.418 189.375 129.21 189.481 128.987 189.544C128.765 189.606 128.531 189.624 128.302 189.595C128.072 189.566 127.85 189.491 127.65 189.375C127.45 189.259 127.275 189.104 127.135 188.92C126.996 188.735 126.895 188.524 126.838 188.3C126.658 187.667 108.574 124.487 81.799 129.214C76.8989 130.079 73.1546 132.565 70.3536 136.814C59.6228 153.087 67.7487 188.446 67.8322 188.802C67.9369 189.249 67.8596 189.72 67.6172 190.111C67.3749 190.502 66.9874 190.78 66.5398 190.886C66.4108 190.915 66.2789 190.931 66.1465 190.931Z" fill="url(#paint5_linear_1458_23843)"/>
<g style="mix-blend-mode:multiply" opacity="0.3">
<path style="mix-blend-mode:multiply" opacity="0.3" d="M152.148 179.516H90.3348C87.286 182.617 85.1224 186.19 84.915 190.2C83.9439 209.042 127.244 215.223 131.421 241.034C134.433 259.657 115.897 281.144 99.3585 290.717C81.9333 300.803 70.1263 295.695 58.3408 306.893C53.1638 311.813 50.0101 317.965 48.1348 324.343L193.384 312.64L152.148 179.516Z" fill="url(#paint6_linear_1458_23843)"/>
</g>
<path d="M70.9436 191.98C71.3722 189.34 69.5793 186.852 66.939 186.424C64.2988 185.995 61.811 187.788 61.3824 190.428C60.9539 193.068 62.7468 195.556 65.387 195.985C68.0273 196.413 70.5151 194.62 70.9436 191.98Z" fill="url(#paint7_linear_1458_23843)"/>
<path d="M134.818 190.92C135.245 188.272 133.446 185.779 130.798 185.351C128.15 184.923 125.656 186.722 125.228 189.37C124.8 192.018 126.6 194.512 129.248 194.94C131.896 195.368 134.39 193.568 134.818 190.92Z" fill="url(#paint8_linear_1458_23843)"/>
<path d="M243.629 41.4289C254.453 132.897 265.276 223.415 276.098 312.983C276.584 316.999 273.81 320.55 269.928 320.881C226.428 325.008 182.93 329.223 139.435 333.526C131.676 333.906 127.415 329.567 126.917 325.227C115.777 228.541 104.637 130.843 93.4962 32.1333C92.9904 27.6998 96.7524 23.8898 104.512 24.2691C148.224 27.3883 191.935 30.4654 235.644 33.5002C239.554 33.7582 243.144 37.3229 243.629 41.4289Z" fill="#26264F"/>
<path d="M249.67 41.2392C260.562 133.112 271.453 224.018 282.343 313.956C282.833 317.985 280.042 321.557 276.134 321.89C230.968 325.716 185.801 329.617 140.634 333.593C136.513 333.96 132.725 330.695 132.223 326.334C121.01 229.205 109.798 131.052 98.5861 31.8753C98.0803 27.4229 101.071 24.0061 105.221 24.2881C150.691 27.323 196.161 30.3199 241.632 33.2789C245.569 33.5394 249.182 37.1168 249.67 41.2392Z" fill="url(#paint9_linear_1458_23843)"/>
<path d="M247.046 56.2682C257.133 141.388 267.221 225.678 277.309 309.137C277.766 312.909 275.159 316.24 271.507 316.537C229.03 320.011 186.553 323.551 144.077 327.159C140.239 327.488 136.711 324.432 136.236 320.38C125.867 230.667 115.502 140.079 105.141 48.6165C104.672 44.4777 107.453 41.2759 111.315 41.5047C154.056 43.9933 196.798 46.4558 239.539 48.8922C243.216 49.0995 246.591 52.4303 247.046 56.2682Z" fill="url(#paint10_linear_1458_23843)"/>
<path d="M247.046 56.2682C257.133 141.388 267.221 225.678 277.309 309.137C277.766 312.909 275.159 316.24 271.507 316.537C229.03 320.011 186.553 323.551 144.077 327.159C140.239 327.488 136.711 324.432 136.236 320.38C125.867 230.667 115.502 140.079 105.141 48.6165C104.672 44.4777 107.453 41.2759 111.315 41.5047C154.056 43.9933 196.798 46.4558 239.539 48.8922C243.216 49.0995 246.591 52.4303 247.046 56.2682Z" fill="url(#paint11_linear_1458_23843)"/>
<g style="mix-blend-mode:multiply" opacity="0.35">
<path d="M239.544 48.8896C197.309 46.4819 155.073 44.0486 112.838 41.5895C114.259 49.8791 116.753 57.9485 120.258 65.5941C134.268 95.9885 154.85 97.6615 162.901 124.142C171.196 151.429 152.489 159.969 161.627 184.606C171.545 211.339 195.87 207.47 208.725 236.794C219.806 262.07 205.541 273.624 216.999 288.984C229.558 305.819 252.792 300.112 276.908 305.814C266.955 223.441 257.001 140.259 247.047 56.2694C246.592 52.4303 243.217 49.0995 239.544 48.8896Z" fill="url(#paint12_linear_1458_23843)"/>
</g>
<path d="M177.854 37.6694C178.026 39.1502 177.031 40.2832 175.633 40.1985C174.234 40.1137 172.957 38.8416 172.785 37.3545C172.613 35.8674 173.609 34.7319 175.009 34.8255C176.409 34.919 177.682 36.1874 177.854 37.6694Z" fill="#DE8BDF"/>
<path d="M193.112 119.926C198.511 119.926 202.888 114.763 202.888 108.394C202.888 102.024 198.511 96.861 193.112 96.861C187.713 96.861 183.336 102.024 183.336 108.394C183.336 114.763 187.713 119.926 193.112 119.926Z" fill="#DD51D4"/>
<path d="M193.112 119.926C198.511 119.926 202.888 114.763 202.888 108.394C202.888 102.024 198.511 96.861 193.112 96.861C187.713 96.861 183.336 102.024 183.336 108.394C183.336 114.763 187.713 119.926 193.112 119.926Z" fill="black" fill-opacity="0.2"/>
<path d="M232.026 119.926C237.424 119.926 241.801 114.763 241.801 108.394C241.801 102.024 237.424 96.861 232.026 96.861C226.627 96.861 222.251 102.024 222.251 108.394C222.251 114.763 226.627 119.926 232.026 119.926Z" fill="#DD51D4"/>
<path d="M232.026 119.926C237.424 119.926 241.801 114.763 241.801 108.394C241.801 102.024 237.424 96.861 232.026 96.861C226.627 96.861 222.251 102.024 222.251 108.394C222.251 114.763 226.627 119.926 232.026 119.926Z" fill="black" fill-opacity="0.2"/>
<path d="M212.461 119.926C217.937 119.926 222.376 114.763 222.376 108.394C222.376 102.024 217.937 96.861 212.461 96.861C206.985 96.861 202.546 102.024 202.546 108.394C202.546 114.763 206.985 119.926 212.461 119.926Z" fill="#D8DEE8"/>
<path d="M270.938 119.926C276.337 119.926 280.714 114.763 280.714 108.394C280.714 102.024 276.337 96.861 270.938 96.861C265.539 96.861 261.162 102.024 261.162 108.394C261.162 114.763 265.539 119.926 270.938 119.926Z" fill="#DD51D4"/>
<path d="M270.938 119.926C276.337 119.926 280.714 114.763 280.714 108.394C280.714 102.024 276.337 96.861 270.938 96.861C265.539 96.861 261.162 102.024 261.162 108.394C261.162 114.763 265.539 119.926 270.938 119.926Z" fill="black" fill-opacity="0.2"/>
<path d="M251.375 119.926C256.851 119.926 261.29 114.763 261.29 108.394C261.29 102.024 256.851 96.861 251.375 96.861C245.899 96.861 241.46 102.024 241.46 108.394C241.46 114.763 245.899 119.926 251.375 119.926Z" fill="#D8DEE8"/>
<path d="M290.287 119.926C295.763 119.926 300.203 114.763 300.203 108.394C300.203 102.024 295.763 96.861 290.287 96.861C284.811 96.861 280.372 102.024 280.372 108.394C280.372 114.763 284.811 119.926 290.287 119.926Z" fill="#D8DEE8"/>
<path d="M173.549 119.926C179.025 119.926 183.464 114.763 183.464 108.394C183.464 102.024 179.025 96.861 173.549 96.861C168.073 96.861 163.634 102.024 163.634 108.394C163.634 114.763 168.073 119.926 173.549 119.926Z" fill="#D8DEE8"/>
<path d="M103.185 40.3603L163.846 109.955H320.413L244.546 49.1741L103.185 40.3603Z" fill="url(#paint13_linear_1458_23843)"/>
<path d="M103.185 40.3603L163.846 109.955H320.413L244.546 49.1741L103.185 40.3603Z" fill="#DD51D4"/>
<path d="M103.185 40.3603L163.846 109.955H183.464L119.502 41.377L103.185 40.3603Z" fill="#F4F7FA"/>
<path d="M137.022 42.4696L202.796 109.955H222.174L154.673 43.571L137.022 42.4696Z" fill="#F4F7FA"/>
<path d="M172.455 44.6787L241.599 109.955H261.071L190.37 45.7966L172.455 44.6787Z" fill="#F4F7FA"/>
<path d="M226.614 48.0563L208.423 46.922L280.59 109.955H300.157L226.614 48.0563Z" fill="#F4F7FA"/>
<path d="M300.176 109.955C300.823 115.585 304.903 119.927 309.851 119.927C314.799 119.927 318.88 115.585 319.527 109.955H300.176Z" fill="#DD51D4"/>
<path d="M300.176 109.955C300.823 115.585 304.903 119.927 309.851 119.927C314.799 119.927 318.88 115.585 319.527 109.955H300.176Z" fill="black" fill-opacity="0.2"/>
<path opacity="0.63" d="M225.762 153.431C217.29 133.917 195.813 124.439 177.782 132.263C159.751 140.087 151.998 162.249 160.465 181.764C168.933 201.28 190.415 210.755 208.446 202.931C226.477 195.108 234.229 172.94 225.762 153.431ZM199.174 181.241L199.896 186.737L194.614 187.431L193.946 182.311C190.315 182.624 186.684 182.115 184.48 181.198L185.268 174.68C187.695 175.621 191.023 176.337 194.527 175.875C197.598 175.472 199.544 174.01 199.26 171.854C198.992 169.806 197.096 168.74 192.937 167.916C186.916 166.734 182.628 164.557 181.936 159.329C181.314 154.587 184.166 150.429 189.784 148.54L189.111 143.42L194.393 142.727L195.015 147.469C198.648 147.155 201.172 147.595 203.064 148.22L202.305 154.515C200.825 154.106 198.184 153.192 194.303 153.703C190.8 154.162 189.867 155.821 190.066 157.33C190.299 159.108 192.334 159.985 197.147 161.115C203.858 162.536 206.833 165.161 207.471 170.008C208.086 174.806 205.23 179.347 199.174 181.241Z" fill="#F4F7FA"/>
<g opacity="0.63">
<path opacity="0.63" d="M245.109 259.393L162.576 261.893C161.142 261.937 159.742 261.454 158.64 260.535C157.538 259.617 156.811 258.326 156.596 256.908L153.25 234.905C153.125 234.081 153.177 233.239 153.402 232.436C153.628 231.633 154.022 230.888 154.558 230.249C155.094 229.61 155.761 229.093 156.512 228.732C157.264 228.371 158.084 228.174 158.918 228.155L241.539 226.242C242.966 226.208 244.358 226.695 245.452 227.613C246.546 228.531 247.268 229.816 247.482 231.228L250.738 252.644C250.863 253.465 250.812 254.304 250.589 255.104C250.365 255.904 249.975 256.648 249.442 257.286C248.91 257.924 248.249 258.441 247.502 258.805C246.755 259.168 245.939 259.368 245.109 259.393Z" fill="#F4F7FA"/>
<path opacity="0.63" d="M247.881 277.481L165.397 280.3C163.96 280.349 162.554 279.868 161.448 278.949C160.341 278.031 159.61 276.738 159.394 275.316L159.363 275.109C159.238 274.288 159.289 273.451 159.511 272.652C159.734 271.852 160.123 271.11 160.654 270.472C161.185 269.834 161.845 269.316 162.59 268.952C163.336 268.588 164.15 268.386 164.98 268.36L247.494 265.746C248.929 265.7 250.331 266.182 251.435 267.101C252.539 268.019 253.267 269.31 253.483 270.73C253.608 271.549 253.558 272.385 253.337 273.184C253.115 273.982 252.727 274.725 252.198 275.363C251.668 276 251.01 276.519 250.266 276.884C249.522 277.249 248.709 277.453 247.881 277.481Z" fill="#F4F7FA"/>
</g>
<defs>
<linearGradient id="paint0_linear_1458_23843" x1="350.652" y1="33.4216" x2="-76.964" y2="76.8081" gradientUnits="userSpaceOnUse">
<stop stop-color="#7C4EAB"/>
<stop offset="1" stop-color="#DD51D4"/>
</linearGradient>
<linearGradient id="paint1_linear_1458_23843" x1="79487.4" y1="104503" x2="81384.5" y2="133266" gradientUnits="userSpaceOnUse">
<stop stop-color="#E38DDD"/>
<stop offset="1" stop-color="#9571F6"/>
</linearGradient>
<linearGradient id="paint2_linear_1458_23843" x1="-10.4881" y1="197.999" x2="31.7537" y2="268.837" gradientUnits="userSpaceOnUse">
<stop stop-color="#FF9085"/>
<stop offset="1" stop-color="#FB6FBB"/>
</linearGradient>
<linearGradient id="paint3_linear_1458_23843" x1="18650.4" y1="293419" x2="61830.7" y2="314220" gradientUnits="userSpaceOnUse">
<stop stop-color="#FF9085"/>
<stop offset="1" stop-color="#FB6FBB"/>
</linearGradient>
<linearGradient id="paint4_linear_1458_23843" x1="92834.4" y1="273362" x2="233109" y2="396607" gradientUnits="userSpaceOnUse">
<stop stop-color="#FF9085"/>
<stop offset="1" stop-color="#FB6FBB"/>
</linearGradient>
<linearGradient id="paint5_linear_1458_23843" x1="80078.2" y1="93590.9" x2="86051.3" y2="133708" gradientUnits="userSpaceOnUse">
<stop stop-color="#E38DDD"/>
<stop offset="1" stop-color="#9571F6"/>
</linearGradient>
<linearGradient id="paint6_linear_1458_23843" x1="143556" y1="327062" x2="279865" y2="432393" gradientUnits="userSpaceOnUse">
<stop stop-color="#FF9085"/>
<stop offset="1" stop-color="#FB6FBB"/>
</linearGradient>
<linearGradient id="paint7_linear_1458_23843" x1="9251.53" y1="19308.5" x2="9401.08" y2="19364.1" gradientUnits="userSpaceOnUse">
<stop stop-color="#E38DDD"/>
<stop offset="1" stop-color="#9571F6"/>
</linearGradient>
<linearGradient id="paint8_linear_1458_23843" x1="14207" y1="19317.7" x2="14357" y2="19373.4" gradientUnits="userSpaceOnUse">
<stop stop-color="#E38DDD"/>
<stop offset="1" stop-color="#9571F6"/>
</linearGradient>
<linearGradient id="paint9_linear_1458_23843" x1="120.688" y1="178.367" x2="390.354" y2="135.697" gradientUnits="userSpaceOnUse">
<stop stop-color="#444B8C"/>
<stop offset="1" stop-color="#26264F"/>
</linearGradient>
<linearGradient id="paint10_linear_1458_23843" x1="241.919" y1="73.6821" x2="-23.6501" y2="624.521" gradientUnits="userSpaceOnUse">
<stop stop-color="#FFC444"/>
<stop offset="1" stop-color="#F36F56"/>
</linearGradient>
<linearGradient id="paint11_linear_1458_23843" x1="277.361" y1="68.7531" x2="65.8869" y2="81.475" gradientUnits="userSpaceOnUse">
<stop stop-color="#7C4EAB"/>
<stop offset="1" stop-color="#DD51D4"/>
</linearGradient>
<linearGradient id="paint12_linear_1458_23843" x1="276.907" y1="66.8012" x2="75.5452" y2="79.2753" gradientUnits="userSpaceOnUse">
<stop stop-color="#7C4EAB"/>
<stop offset="1" stop-color="#DD51D4"/>
</linearGradient>
<linearGradient id="paint13_linear_1458_23843" x1="190619" y1="47458.2" x2="563784" y2="47458.2" gradientUnits="userSpaceOnUse">
<stop stop-color="#FF9085"/>
<stop offset="1" stop-color="#FB6FBB"/>
</linearGradient>
</defs>
</svg>
