<svg width="358" height="359" viewBox="0 0 358 359" fill="none" xmlns="http://www.w3.org/2000/svg">
<path opacity="0.5" d="M272.478 21.5522C284.428 38.837 270.416 66.8588 288.145 79.8585C305.404 92.512 326.606 71.7685 342.871 82.6631C366.998 98.8209 362.593 172.758 327.315 218.696C316.707 232.509 307.842 237.887 303.916 253.511C295.486 287.06 325.114 307.017 319.476 323.61C306.786 360.972 111.539 392.322 33.1999 280.039C-3.39072 227.598 -8.86328 151.873 23.8268 94.3596C82.8977 -9.5661 245.667 -17.2299 272.478 21.5522Z" fill="url(#paint0_linear_1458_23775)" fill-opacity="0.5"/>
<path d="M0.00012207 314.24L349.498 311.64V319.333C349.498 320.343 349.136 321.32 348.479 322.087C347.821 322.854 346.91 323.36 345.912 323.513L247.084 338.664C245.909 338.844 244.718 338.892 243.532 338.807L3.79471 321.534C2.76288 321.46 1.79742 320.998 1.09268 320.241C0.38797 319.484 -0.00375366 318.488 -0.00357056 317.453L0.00012207 314.24Z" fill="url(#paint1_linear_1458_23775)"/>
<path d="M126.831 301.769L345.882 315.844C349.802 316.09 352.989 313.419 352.989 309.865V167.494C352.989 163.941 349.802 161.06 345.882 161.06H126.831C126.066 161.058 125.307 161.207 124.599 161.499C123.891 161.79 123.248 162.218 122.705 162.758C122.163 163.298 121.732 163.94 121.438 164.647C121.144 165.353 120.992 166.111 120.99 166.876V295.573C120.99 298.789 123.602 301.562 126.831 301.769Z" fill="url(#paint2_linear_1458_23775)"/>
<path d="M123.339 301.769L342.39 315.844C346.31 316.09 349.497 313.419 349.497 309.865V167.494C349.497 163.941 346.31 161.06 342.39 161.06H123.339C122.573 161.058 121.815 161.207 121.107 161.499C120.399 161.79 119.755 162.218 119.213 162.758C118.671 163.298 118.24 163.94 117.946 164.647C117.651 165.353 117.499 166.111 117.498 166.876V295.573C117.498 298.789 120.11 301.562 123.339 301.769Z" fill="url(#paint3_linear_1458_23775)"/>
<path d="M130.161 292.696L334.181 304.921C337.371 305.111 339.963 302.915 339.963 300.015V175.364C339.963 172.463 337.376 170.102 334.181 170.09L130.161 169.322C129.531 169.317 128.906 169.436 128.323 169.673C127.739 169.91 127.208 170.26 126.761 170.703C126.313 171.146 125.957 171.673 125.714 172.254C125.47 172.835 125.344 173.458 125.343 174.088V287.619C125.343 290.264 127.497 292.536 130.161 292.696Z" fill="url(#paint4_linear_1458_23775)"/>
<path d="M225.127 164.953C225.127 166.276 226.254 167.353 227.646 167.356C229.038 167.36 230.172 166.289 230.172 164.962C230.172 163.635 229.041 162.561 227.646 162.56C226.252 162.559 225.127 163.63 225.127 164.953Z" fill="white"/>
<g style="mix-blend-mode:soft-light" opacity="0.48">
<path d="M176.115 262.722C193.002 254.461 206.281 264.928 219.095 254.601C226.864 248.34 223.05 243.671 232.609 234.314C243.197 223.951 250.09 227.434 260.731 218.107C274.186 206.314 267.456 197.138 279.046 188.669C293.105 178.398 308.267 187.905 321.651 178.054C327.423 173.805 330.59 167.628 332.246 161.056H345.339C347.634 161.056 349.498 162.747 349.498 164.833V312.417C349.498 314.502 347.634 316.073 345.339 315.925L122.089 301.514C121.559 301.475 121.044 301.321 120.579 301.063C120.114 300.805 119.712 300.448 119.399 300.018C135.741 299.478 145.781 294.497 152.2 289.347C164.754 279.279 162.577 269.345 176.115 262.722Z" fill="white"/>
</g>
<path d="M114.607 301.131L349.498 315.944L247.081 331.645C245.907 331.824 244.717 331.871 243.532 331.786L-0.00357056 314.239L110.867 301.23C112.108 301.085 113.36 301.052 114.607 301.131Z" fill="url(#paint5_linear_1458_23775)"/>
<path style="mix-blend-mode:multiply" opacity="0.3" d="M315.224 316.318L119.671 303.801L59.1487 310.844L253.017 324.224L315.224 316.318Z" fill="url(#paint6_linear_1458_23775)"/>
<path d="M23.4374 107.597C17.031 108.136 11.3563 102.948 10.7724 96.0088C10.1884 89.0692 14.9094 83.0067 21.3196 82.4672C21.6522 82.4389 21.9812 82.4352 22.3052 82.4376C22.6042 78.8993 23.1621 75.3877 23.9745 71.931C23.6702 71.8078 23.3659 71.6773 23.0666 71.5233C17.2231 68.5203 14.6741 60.997 17.3722 54.7176C20.0703 48.4383 26.9967 45.7802 32.8401 48.7832C33.1456 48.9396 33.4363 49.1157 33.7234 49.2968C35.6186 46.4336 37.7315 43.7207 40.0436 41.1822C39.8317 40.9063 39.6223 40.6242 39.4276 40.32C35.7156 34.5801 36.971 26.7352 42.2292 22.7986C47.4874 18.8621 54.7611 20.3229 58.4719 26.0615C58.6617 26.3559 58.8304 26.6589 58.9943 26.9631C61.982 25.5228 65.0857 24.3366 68.2726 23.417C68.2159 23.0672 68.1629 22.7149 68.1333 22.3552C67.5481 15.4169 66.2853 7.5819 72.7016 7.14217C87.5522 6.13092 90.7616 13.4671 91.3517 20.4054C91.3813 20.7651 91.3887 21.121 91.3912 21.4745C94.6867 21.8492 97.9449 22.5002 101.131 23.4207C101.242 23.093 101.358 22.7666 101.501 22.4439C104.2 16.1621 103.712 11.9742 109.847 14.3293C123.224 19.4594 125.361 27.037 122.659 33.3164C122.519 33.6452 122.359 33.9569 122.196 34.2648C124.901 36.3808 127.438 38.7021 129.785 41.208C130.038 40.9826 130.295 40.7597 130.57 40.554C135.828 36.6125 143.101 38.0782 146.813 43.8181C150.525 49.5579 149.27 57.4028 144.01 61.3394C143.74 61.5414 143.463 61.72 143.183 61.8924C144.563 65.165 145.7 68.5342 146.587 71.9729C146.91 71.9162 147.234 71.8645 147.573 71.8362C153.98 71.2967 159.647 76.4847 160.238 83.4242C160.83 90.3638 156.1 96.4263 149.69 96.9658C149.358 96.9942 149.029 96.9979 148.704 96.9954C148.405 100.534 147.847 104.045 147.035 107.502C147.339 107.625 147.642 107.756 147.942 107.91C153.786 110.913 156.335 118.436 153.636 124.717C150.936 130.997 144.013 133.653 138.169 130.65C137.864 130.493 137.572 130.317 137.285 130.136C135.391 133 133.278 135.713 130.964 138.251C131.178 138.528 131.386 138.809 131.58 139.113C135.291 144.853 134.037 152.698 128.778 156.636C123.518 160.573 112.134 158.771 108.424 153.032C108.233 152.737 112.176 152.774 112.012 152.47C109.025 153.91 105.922 155.096 102.735 156.016C102.792 156.366 102.844 156.718 102.875 157.078C103.459 164.016 98.7364 170.08 92.3262 170.619C85.9161 171.159 80.2452 165.971 79.6612 159.033C79.6304 158.673 79.623 158.317 79.6206 157.963C76.325 157.589 73.0668 156.938 69.8803 156.017C69.7694 156.345 69.6549 156.671 69.5107 156.994C66.8126 163.276 59.8875 165.93 54.0441 162.927C48.2007 159.924 45.6505 152.401 48.3498 146.122C48.4902 145.794 48.6492 145.481 48.813 145.173C46.1084 143.057 43.5711 140.736 41.2238 138.23C40.9774 138.455 40.7138 138.678 40.4391 138.884C35.1796 142.825 27.9071 141.36 24.1963 135.62C20.4855 129.88 21.7397 122.035 26.9991 118.099C27.2677 117.897 27.5461 117.719 27.8245 117.546C26.4454 114.273 25.3081 110.904 24.4218 107.465C24.094 107.517 23.7688 107.569 23.4374 107.597ZM89.3497 135.337C112.624 133.377 129.771 111.363 127.648 86.1685C125.525 60.9736 104.93 42.1368 81.6583 44.0964C58.3869 46.0561 41.2349 68.0732 43.3602 93.2657C45.4854 118.458 66.071 137.296 89.3448 135.337H89.3497Z" fill="#BFC6D1"/>
<path d="M23.0713 71.5221C17.2278 68.5191 14.6788 60.9957 17.3769 54.7152C20.075 48.4346 27.0013 45.779 32.8447 48.7819C33.1503 48.9384 33.4411 49.1145 33.7281 49.2956C35.6229 46.4322 37.736 43.7193 40.0483 41.181C39.8364 40.9051 39.627 40.623 39.4323 40.3188C35.7203 34.5789 32.8694 23.1978 38.5046 19.8167C49.1996 13.4117 54.7671 20.3217 58.4766 26.0603C58.6664 26.3547 58.8352 26.6577 59.0002 26.9619C61.9874 25.5214 65.0908 24.3352 68.2773 23.4158C68.2206 23.066 68.1676 22.7137 68.1381 22.354C67.819 18.5776 69.0818 15.0684 71.324 12.5606C72.7531 23.4113 74.0911 34.2726 75.3379 45.1447C55.3634 50.1713 41.4343 70.4049 43.3599 93.2596C44.9911 112.625 57.5366 128.221 73.8213 133.517C73.7843 135.635 73.7289 137.757 73.7486 139.877C73.8016 145.629 74.1749 151.392 74.5543 157.152C72.9741 156.833 71.4135 156.451 69.8727 156.006C69.7618 156.334 69.6472 156.66 69.5031 156.983C66.805 163.265 60.7743 167.083 50.0226 162.033C44.0757 159.242 45.6428 152.387 48.3422 146.108C48.4826 145.78 48.6415 145.468 48.8054 145.16C46.1007 143.044 43.5635 140.723 41.2162 138.216C40.9698 138.442 40.7062 138.665 40.4314 138.87C35.172 142.812 23.3743 140.595 19.6623 134.857C15.9502 129.12 21.732 122.022 26.9915 118.085C27.2601 117.883 27.5385 117.704 27.8169 117.531C26.4378 114.259 25.3005 110.89 24.4141 107.452C24.0913 107.508 23.7661 107.56 23.4347 107.588C17.0283 108.128 11.3536 102.94 10.7697 96.0002C10.1857 89.0606 14.9067 82.9981 21.3181 82.4586C21.6495 82.4302 21.9785 82.4265 22.3037 82.429C22.6027 78.8907 23.1606 75.3791 23.9731 71.9224C23.6749 71.8066 23.3719 71.6773 23.0713 71.5221Z" fill="#BFC6D1"/>
<path d="M17.4578 105.925C11.0514 106.465 5.37796 101.278 4.79276 94.3385C4.20755 87.399 8.93109 81.3352 15.3412 80.7895C15.6726 80.7612 16.0016 80.7587 16.3268 80.7612C16.6257 77.2225 17.1837 73.7105 17.9962 70.2533C17.6919 70.1302 17.3876 69.9996 17.0882 69.8456C11.2448 66.8439 8.69577 59.3193 11.3951 53.04C14.0944 46.7606 21.0183 44.1038 26.8617 47.1055C27.1672 47.2632 27.458 47.4393 27.745 47.6191C29.6405 44.7559 31.7539 42.043 34.0665 39.5045C33.8533 39.2286 33.6439 38.9478 33.4505 38.6423C29.7397 32.9025 30.9938 25.0576 36.2533 21.121C41.5127 17.1844 48.784 18.6452 52.4948 24.3851C52.6858 24.6795 52.8533 24.9812 53.0184 25.2855C56.0056 23.845 59.1089 22.6587 62.2954 21.7393C62.2387 21.3895 62.187 21.0385 62.1562 20.6788C61.571 13.7393 66.2945 7.67548 72.7046 7.13598C79.1148 6.59649 84.7845 11.7845 85.3697 18.7241C85.3992 19.0837 85.4079 19.4385 85.4103 19.7932C88.7055 20.1675 91.9633 20.8181 95.1494 21.7381C95.2615 21.4105 95.376 21.0841 95.519 20.7626C98.2183 14.4808 105.143 11.8264 110.987 14.8281C116.83 17.8298 119.38 25.3544 116.681 31.6338C116.541 31.9627 116.382 32.2743 116.218 32.5822C118.923 34.6984 121.46 37.0201 123.807 39.5267C124.06 39.3001 124.317 39.0771 124.592 38.8714C129.851 34.9299 137.123 36.3956 140.835 42.1355C144.547 47.8753 143.291 55.7202 138.032 59.6568C137.763 59.8588 137.485 60.0374 137.205 60.2111C138.585 63.483 139.723 66.8518 140.609 70.2903C140.932 70.2336 141.256 70.1819 141.595 70.1548C148.001 69.6141 153.676 74.8021 154.26 81.7417C154.844 88.6812 150.121 94.7438 143.711 95.2906C143.38 95.3177 143.051 95.3214 142.726 95.319C142.427 98.8576 141.869 102.37 141.056 105.827C141.361 105.95 141.665 106.081 141.964 106.233C147.808 109.236 150.357 116.761 147.659 123.04C144.961 129.32 138.034 131.976 132.191 128.975C131.885 128.817 131.595 128.641 131.308 128.46C129.413 131.323 127.299 134.036 124.986 136.574C125.199 136.852 125.409 137.132 125.602 137.437C129.313 143.176 128.059 151.02 122.799 154.958C117.54 158.896 110.269 157.434 106.558 151.694C106.367 151.399 106.199 151.096 106.034 150.792C103.047 152.233 99.9434 153.419 96.7571 154.34C96.8138 154.689 96.8655 155.04 96.8963 155.4C97.4815 162.34 92.758 168.402 86.3479 168.942C79.9377 169.481 74.2742 164.294 73.6829 157.355C73.6521 156.995 73.6447 156.639 73.6434 156.286C70.3479 155.912 67.0897 155.261 63.9032 154.341C63.7923 154.668 63.6765 154.995 63.5336 155.316C60.8343 161.598 53.9091 164.253 48.0657 161.251C42.2223 158.249 39.6721 150.723 42.3714 144.444C42.5119 144.116 42.6708 143.803 42.8346 143.495C40.1297 141.38 37.5924 139.059 35.2455 136.552C34.9991 136.779 34.7354 137.001 34.4607 137.206C29.2013 141.148 21.93 139.683 18.2179 133.943C14.5059 128.204 15.7613 120.359 21.0207 116.421C21.2906 116.22 21.5677 116.042 21.8474 115.868C20.4673 112.596 19.3296 109.226 18.4434 105.787C18.1145 105.845 17.7904 105.897 17.4578 105.925ZM83.3701 133.665C106.644 131.705 123.791 109.692 121.668 84.497C119.546 59.3021 98.9575 40.4653 75.6836 42.4262C52.4098 44.3871 35.2578 66.398 37.3806 91.5992C39.5033 116.8 60.0852 135.625 83.3701 133.665Z" fill="#D8DEE8"/>
<path d="M131.556 79.835V139.204C131.556 141.175 130.208 142.74 128.55 142.7L30.4424 140.298C28.9332 140.261 27.711 138.71 27.711 136.834V80.3141L131.556 79.835Z" fill="white"/>
<path d="M30.4424 73.1159L128.55 72.3227C130.208 72.3091 131.556 73.8956 131.556 75.8676V81.9511L27.711 82.328V76.5389C27.711 74.6592 28.9332 73.1233 30.4424 73.1159Z" fill="url(#paint7_linear_1458_23775)"/>
<path d="M107.052 111.184L101.568 88.1985C93.3014 91.401 87.3496 100.672 87.3052 111.635L107.052 111.184Z" fill="url(#paint8_linear_1458_23775)"/>
<path d="M92.3878 113.127C92.6933 118.355 94.7791 123.019 97.9245 126.24L106.521 112.793L92.3878 113.127Z" fill="#F4F7FA"/>
<path d="M108.28 110.406C111.606 106.616 115.636 102.031 118.843 98.3515C115.998 95.1096 112.16 93.1192 107.951 93.113C106.7 93.1105 105.456 93.2855 104.255 93.6328L108.28 110.406Z" fill="#F4F7FA"/>
<path d="M108.974 111.854L121.088 122.639C122.788 119.647 123.782 116.026 123.782 112.115C123.782 107.293 122.272 102.877 119.787 99.5241C118.898 100.542 117.913 101.669 116.83 102.906C113.554 106.643 110.271 110.378 108.974 111.854Z" fill="#F4F7FA"/>
<path d="M108.627 113.546L108.86 130.777C113.462 130.551 117.552 127.944 120.283 123.936L108.627 113.546Z" fill="#F4F7FA"/>
<path d="M107.288 114.263L98.9851 127.239C101.406 129.321 104.337 130.612 107.512 130.777L107.288 114.263Z" fill="#F4F7FA"/>
<path d="M34.8078 98.6976L84.5254 98.9119V93.1167L34.8078 93.0391V98.6976Z" fill="#D8DEE8"/>
<path d="M34.8078 108.938L84.5254 109.399V103.604L34.8078 103.28V108.938Z" fill="#D8DEE8"/>
<path d="M34.8078 119.179L84.5254 119.885V114.089L34.8078 113.52V119.179Z" fill="#D8DEE8"/>
<path d="M34.8078 129.419L84.5254 130.372V124.576L34.8078 123.76V129.419Z" fill="#D8DEE8"/>
<path d="M31.7202 77.8546C31.7202 78.7279 32.3165 79.4325 33.0507 79.4288C33.785 79.4251 34.3838 78.7131 34.3838 77.8386C34.3838 76.9641 33.7863 76.2595 33.0507 76.2632C32.3152 76.2669 31.7202 76.9813 31.7202 77.8546Z" fill="white"/>
<path d="M234.724 208.595V280.558C234.724 282.948 233.056 284.784 231.002 284.661L110.282 277.42C108.434 277.309 106.942 275.389 106.942 273.129V205.065L234.724 208.595Z" fill="white"/>
<path d="M110.282 196.503L231.002 199.375C233.056 199.425 234.724 201.4 234.724 203.79V211.164L106.942 207.495V200.521C106.942 198.256 108.437 196.46 110.282 196.503Z" fill="url(#paint9_linear_1458_23775)"/>
<path d="M119.931 265.648L220.375 271.121V222.056L119.931 218.687V265.648Z" fill="#F4F7FA"/>
<path d="M119.932 265.65L220.37 271.121V239.58C217.083 260.864 213.583 265.438 210.945 265.53C207.234 265.661 205.237 256.915 199.629 256.415C194.066 255.916 192.189 264.206 188.024 263.706C180.112 262.755 177.962 231.65 171.552 231.188C166.464 230.819 163.023 250.122 158.542 249.147C155.268 248.435 154.476 237.549 151.999 237.556C149.753 237.564 149.658 246.513 146.701 247.211C142.372 248.232 138.163 230.039 132.2 229.684C128.9 229.487 124.791 234.742 119.925 253L119.932 265.65Z" fill="url(#paint10_linear_1458_23775)"/>
<path d="M111.025 202.058C111.025 203.116 111.764 203.994 112.671 204.018C113.577 204.041 114.32 203.203 114.32 202.144C114.32 201.085 113.581 200.207 112.671 200.183C111.76 200.16 111.025 200.999 111.025 202.058Z" fill="white"/>
<path d="M335.519 76.0597V179.235C335.519 182.661 333.026 185.394 329.957 185.342L153.641 182.332C151.005 182.286 148.872 179.684 148.872 176.519V81.175L335.519 76.0597Z" fill="white"/>
<path d="M153.641 68.9158L329.957 63.1464C333.026 63.0454 335.519 65.7404 335.519 69.1658V79.7389L148.87 84.5747V74.8034C148.872 71.6379 151.008 69.002 153.641 68.9158Z" fill="url(#paint11_linear_1458_23775)"/>
<path d="M154.077 76.871C154.077 78.386 155.176 79.5808 156.532 79.5451C157.889 79.5093 158.996 78.2444 158.996 76.7269C158.996 75.2094 157.895 74.0171 156.532 74.0528C155.169 74.0885 154.077 75.356 154.077 76.871Z" fill="white"/>
<path d="M297.395 171.438L311.286 171.6V94.9249L297.395 95.202V171.438Z" fill="#F4F7FA"/>
<path d="M297.395 171.438L311.286 171.6V135.196L297.395 135.243V171.438Z" fill="url(#paint12_linear_1458_23775)"/>
<path d="M278.33 171.218L292.002 171.377V95.3091L278.33 95.5814V171.218Z" fill="#F4F7FA"/>
<path d="M278.33 171.218L292.002 171.377V153.318L278.33 153.263V171.218Z" fill="url(#paint13_linear_1458_23775)"/>
<path d="M259.564 171.001L273.022 171.158V95.6873L259.564 95.9558V171.001Z" fill="#F4F7FA"/>
<path d="M259.564 171.001L273.022 171.158V161.751L259.564 161.649V171.001Z" fill="url(#paint14_linear_1458_23775)"/>
<path d="M241.086 170.788L254.338 170.941V96.0605L241.086 96.3241V170.788Z" fill="#F4F7FA"/>
<path d="M241.086 170.788L254.338 170.941V112.281L241.086 112.455V170.788Z" fill="url(#paint15_linear_1458_23775)"/>
<path d="M222.898 170.578L235.943 170.729V96.4264L222.898 96.6863V170.578Z" fill="#F4F7FA"/>
<path d="M222.898 170.578L235.943 170.729V119.136L222.898 119.271V170.578Z" fill="url(#paint16_linear_1458_23775)"/>
<path d="M204.982 170.371L217.831 170.52V96.7872L204.982 97.0434V170.371Z" fill="#F4F7FA"/>
<path d="M204.982 170.37L217.831 170.52V107.508L204.982 107.705V170.37Z" fill="url(#paint17_linear_1458_23775)"/>
<path d="M187.34 170.166L199.993 170.313V97.1432L187.34 97.3957V170.166Z" fill="#F4F7FA"/>
<path d="M187.34 170.166L199.993 170.313V125.369L187.34 125.468V170.166Z" fill="url(#paint18_linear_1458_23775)"/>
<path d="M169.964 169.965L182.427 170.109V97.493L169.964 97.7418V169.965Z" fill="#F4F7FA"/>
<path d="M169.964 169.965L182.427 170.109V144.898L169.964 144.891V169.965Z" fill="url(#paint19_linear_1458_23775)"/>
<path d="M342.365 216.902V276.797C342.365 278.785 341.063 280.324 339.456 280.234L244.299 274.917C242.831 274.835 241.643 273.23 241.643 271.332V214.163L342.365 216.902Z" fill="white"/>
<path d="M244.299 206.969L339.456 209.229C341.058 209.267 342.365 210.909 342.365 212.898V219.036L241.643 216.203V210.338C241.643 208.444 242.831 206.933 244.299 206.969Z" fill="url(#paint20_linear_1458_23775)"/>
<path d="M246.22 211.565C246.22 212.447 246.796 213.176 247.507 213.196C248.218 213.215 248.797 212.514 248.797 211.631C248.797 210.748 248.219 210.019 247.507 210.002C246.795 209.984 246.22 210.689 246.22 211.565Z" fill="white"/>
<path d="M327.05 245.593C326.166 243.491 324.511 241.952 322.565 241.594L322.428 231.353C327.961 231.807 332.696 236.232 334.808 242.332L327.05 245.593Z" fill="url(#paint21_linear_1458_23775)"/>
<path d="M321.007 241.566C318.378 241.956 316.325 244.559 316.079 247.884L307.959 247.962C308.062 238.91 313.699 231.725 320.866 231.334L321.007 241.566Z" fill="#D8DEE8"/>
<path d="M316.149 249.822C316.627 253.253 319.008 255.953 321.882 256.084C322.708 256.121 323.529 255.94 324.264 255.56L328.592 264.49C326.596 265.767 324.254 266.393 321.887 266.28C314.631 265.917 308.705 258.731 308.032 249.898L316.149 249.822Z" fill="#D8DEE8"/>
<path d="M329.924 263.528L325.59 254.596C326.898 253.316 327.734 251.321 327.734 249.046C327.734 248.509 327.686 247.973 327.592 247.445L335.354 244.189C335.771 245.894 335.981 247.642 335.979 249.397C335.979 255.366 333.581 260.53 329.924 263.528Z" fill="#D8DEE8"/>
<path d="M296.824 244.37C295.962 242.298 294.354 240.781 292.462 240.429L292.33 230.329C297.711 230.772 302.309 235.132 304.369 241.149L296.824 244.37Z" fill="#D8DEE8"/>
<path d="M290.948 240.401C288.392 240.788 286.398 243.358 286.161 246.636L278.26 246.718C278.361 237.79 283.844 230.705 290.816 230.309L290.948 240.401Z" fill="url(#paint22_linear_1458_23775)"/>
<path d="M286.22 248.548C286.684 251.932 289.002 254.594 291.797 254.72C292.601 254.756 293.401 254.577 294.113 254.203L298.324 263.007C296.387 264.268 294.103 264.886 291.795 264.776C284.735 264.424 278.969 257.34 278.316 248.622L286.22 248.548Z" fill="#D8DEE8"/>
<path d="M299.622 262.059L295.4 253.251C296.678 251.987 297.494 250.02 297.494 247.782C297.494 247.252 297.448 246.722 297.356 246.199L304.902 242.978C305.308 244.66 305.512 246.384 305.511 248.113C305.511 254.004 303.179 259.099 299.622 262.059Z" fill="#D8DEE8"/>
<path d="M267.419 243.182C266.583 241.138 265.015 239.642 263.174 239.296L263.051 229.333C268.288 229.768 272.769 234.071 274.768 240.001L267.419 243.182Z" fill="#D8DEE8"/>
<path d="M261.702 239.27C259.215 239.653 257.274 242.188 257.043 245.428L249.354 245.512C249.451 236.705 254.788 229.708 261.574 229.318L261.702 239.27Z" fill="#D8DEE8"/>
<path d="M257.101 247.309C257.553 250.647 259.811 253.271 262.522 253.394C263.306 253.429 264.085 253.252 264.776 252.881L268.874 261.564C266.996 262.807 264.771 263.42 262.522 263.314C255.652 262.97 250.04 255.987 249.405 247.387L257.101 247.309Z" fill="#D8DEE8"/>
<path d="M270.143 260.628L266.042 251.943C267.274 250.695 268.071 248.754 268.071 246.54C268.071 246.017 268.026 245.494 267.936 244.979L275.282 241.803C275.676 243.463 275.875 245.162 275.873 246.868C275.871 252.679 273.601 257.706 270.143 260.628Z" fill="url(#paint23_linear_1458_23775)"/>
<defs>
<linearGradient id="paint0_linear_1458_23775" x1="2.23625" y1="34.195" x2="436.274" y2="77.2263" gradientUnits="userSpaceOnUse">
<stop stop-color="#7C4EAB"/>
<stop offset="1" stop-color="#DD51D4"/>
</linearGradient>
<linearGradient id="paint1_linear_1458_23775" x1="201.761" y1="327.248" x2="226.276" y2="337.547" gradientUnits="userSpaceOnUse">
<stop stop-color="#40447E"/>
<stop offset="1" stop-color="#3C3B6B"/>
</linearGradient>
<linearGradient id="paint2_linear_1458_23775" x1="-305890" y1="346881" x2="-266991" y2="371366" gradientUnits="userSpaceOnUse">
<stop stop-color="#40447E"/>
<stop offset="1" stop-color="#3C3B6B"/>
</linearGradient>
<linearGradient id="paint3_linear_1458_23775" x1="-102169" y1="353306" x2="-539048" y2="353306" gradientUnits="userSpaceOnUse">
<stop stop-color="#40447E"/>
<stop offset="1" stop-color="#3C3B6B"/>
</linearGradient>
<linearGradient id="paint4_linear_1458_23775" x1="125.343" y1="182.262" x2="383.325" y2="222.995" gradientUnits="userSpaceOnUse">
<stop stop-color="#7C4EAB"/>
<stop offset="1" stop-color="#DD51D4"/>
</linearGradient>
<linearGradient id="paint5_linear_1458_23775" x1="-154092" y1="89889.4" x2="-1.14556e+06" y2="89889.4" gradientUnits="userSpaceOnUse">
<stop stop-color="#40447E"/>
<stop offset="1" stop-color="#3C3B6B"/>
</linearGradient>
<linearGradient id="paint6_linear_1458_23775" x1="-88596.5" y1="52364.7" x2="-620853" y2="52364.7" gradientUnits="userSpaceOnUse">
<stop stop-color="#40447E"/>
<stop offset="1" stop-color="#3C3B6B"/>
</linearGradient>
<linearGradient id="paint7_linear_1458_23775" x1="-280390" y1="8776.64" x2="-279899" y2="17102.7" gradientUnits="userSpaceOnUse">
<stop stop-color="#FFC444"/>
<stop offset="1" stop-color="#F36F56"/>
</linearGradient>
<linearGradient id="paint8_linear_1458_23775" x1="-153868" y1="25258.7" x2="-149114" y2="39418.9" gradientUnits="userSpaceOnUse">
<stop stop-color="#FFC444"/>
<stop offset="1" stop-color="#F36F56"/>
</linearGradient>
<linearGradient id="paint9_linear_1458_23775" x1="159.948" y1="187.148" x2="218.761" y2="283.316" gradientUnits="userSpaceOnUse">
<stop stop-color="#AA80F9"/>
<stop offset="1" stop-color="#6165D7"/>
</linearGradient>
<linearGradient id="paint10_linear_1458_23775" x1="-185904" y1="92257.7" x2="-187530" y2="114540" gradientUnits="userSpaceOnUse">
<stop stop-color="#AA80F9"/>
<stop offset="1" stop-color="#6165D7"/>
</linearGradient>
<linearGradient id="paint11_linear_1458_23775" x1="227.568" y1="52.0202" x2="306.615" y2="181.274" gradientUnits="userSpaceOnUse">
<stop stop-color="#FF9085"/>
<stop offset="1" stop-color="#FB6FBB"/>
</linearGradient>
<linearGradient id="paint12_linear_1458_23775" x1="-6663.32" y1="37876.7" x2="3100.05" y2="49502.8" gradientUnits="userSpaceOnUse">
<stop stop-color="#FF9085"/>
<stop offset="1" stop-color="#FB6FBB"/>
</linearGradient>
<linearGradient id="paint13_linear_1458_23775" x1="-8292.1" y1="21936.7" x2="-6336.01" y2="26543.9" gradientUnits="userSpaceOnUse">
<stop stop-color="#FF9085"/>
<stop offset="1" stop-color="#FB6FBB"/>
</linearGradient>
<linearGradient id="paint14_linear_1458_23775" x1="-10048.7" y1="12333.7" x2="-9670.93" y2="14002" gradientUnits="userSpaceOnUse">
<stop stop-color="#FF9085"/>
<stop offset="1" stop-color="#FB6FBB"/>
</linearGradient>
<linearGradient id="paint15_linear_1458_23775" x1="-12963.8" y1="48771.1" x2="10164" y2="65075.6" gradientUnits="userSpaceOnUse">
<stop stop-color="#FF9085"/>
<stop offset="1" stop-color="#FB6FBB"/>
</linearGradient>
<linearGradient id="paint16_linear_1458_23775" x1="-14563.2" y1="46170.3" x2="4066.63" y2="60871" gradientUnits="userSpaceOnUse">
<stop stop-color="#FF9085"/>
<stop offset="1" stop-color="#FB6FBB"/>
</linearGradient>
<linearGradient id="paint17_linear_1458_23775" x1="-16472.9" y1="49701.9" x2="9020.31" y2="65924.6" gradientUnits="userSpaceOnUse">
<stop stop-color="#FF9085"/>
<stop offset="1" stop-color="#FB6FBB"/>
</linearGradient>
<linearGradient id="paint18_linear_1458_23775" x1="-17686.1" y1="42843" x2="-3142.99" y2="55620.7" gradientUnits="userSpaceOnUse">
<stop stop-color="#FF9085"/>
<stop offset="1" stop-color="#FB6FBB"/>
</linearGradient>
<linearGradient id="paint19_linear_1458_23775" x1="-18803" y1="28619.4" x2="-14315.1" y2="35541.3" gradientUnits="userSpaceOnUse">
<stop stop-color="#FF9085"/>
<stop offset="1" stop-color="#FB6FBB"/>
</linearGradient>
<linearGradient id="paint20_linear_1458_23775" x1="283.346" y1="199.787" x2="330.017" y2="276.1" gradientUnits="userSpaceOnUse">
<stop stop-color="#E38DDD"/>
<stop offset="1" stop-color="#9571F6"/>
</linearGradient>
<linearGradient id="paint21_linear_1458_23775" x1="-7963.22" y1="31720.5" x2="-5615.47" y2="34960" gradientUnits="userSpaceOnUse">
<stop stop-color="#FF9085"/>
<stop offset="1" stop-color="#FB6FBB"/>
</linearGradient>
<linearGradient id="paint22_linear_1458_23775" x1="-11934.1" y1="36705.3" x2="-12536.5" y2="45623.1" gradientUnits="userSpaceOnUse">
<stop stop-color="#FFC444"/>
<stop offset="1" stop-color="#F36F56"/>
</linearGradient>
<linearGradient id="paint23_linear_1458_23775" x1="-10396.8" y1="43469.1" x2="-8922.94" y2="52204.8" gradientUnits="userSpaceOnUse">
<stop stop-color="#AA80F9"/>
<stop offset="1" stop-color="#6165D7"/>
</linearGradient>
</defs>
</svg>
