<svg width="39" height="39" viewBox="0 0 39 39" fill="none" xmlns="http://www.w3.org/2000/svg">
<g clip-path="url(#clip0_1458_23898)">
<path d="M27.6406 12.5C26.5719 13.5687 25.5032 14.6374 24.3752 15.7654C25.6814 17.4872 26.1563 19.4465 25.6814 21.5839C25.2658 23.2463 24.3158 24.6118 22.8909 25.5618C20.1004 27.521 16.36 27.1054 14.0445 24.6118C11.6697 22.0588 11.5509 18.3184 13.8071 15.6467C15.8257 13.2125 19.7442 12.025 23.2471 14.578C24.3158 13.5093 25.3845 12.4406 26.4532 11.3126C24.5533 9.70955 22.3566 8.7596 19.7442 8.58149C19.7442 9.29395 19.7442 9.94703 19.7442 10.6595C19.7442 11.2532 19.4473 11.6094 18.9724 11.6094C18.4974 11.6094 18.2005 11.2532 18.2005 10.6595C18.2005 9.11583 18.2005 7.63155 18.2005 6.08789C18.2005 5.90977 18.2005 5.73166 18.2005 5.55354C16.7163 5.61291 15.2913 5.90977 13.9258 6.44411C9.17607 8.344 6.14812 11.7876 4.90132 16.7748C4.90132 16.8935 4.84195 16.9529 4.84195 17.0716C4.72321 17.4872 4.36698 17.7247 3.95138 17.6653C3.53578 17.5466 3.29829 17.1904 3.35766 16.7154C3.77326 14.578 4.60446 12.6188 5.85127 10.897C8.81984 6.91909 12.679 4.6036 17.6068 4.12863C17.7849 4.12863 18.0224 4.06925 18.2599 4.06925C18.2599 3.41617 18.2599 2.70371 18.2599 2.05062C18.2599 1.33816 18.4974 0.981934 19.0317 0.981934C19.5067 0.981934 19.8036 1.33816 19.8036 1.99125C19.8036 3.53491 19.8036 5.0192 19.8036 6.56286C19.8036 6.74097 19.8036 6.91909 19.8036 7.0972C22.7722 7.33469 25.3845 8.40338 27.5812 10.3033C27.9375 9.94704 28.2343 9.59081 28.6499 9.17521C27.8781 8.64086 27.1656 8.04715 26.3344 7.57217C25.0283 6.80034 23.6627 6.20663 22.1784 5.90977C22.0597 5.90977 21.941 5.8504 21.8816 5.8504C21.466 5.73166 21.2285 5.31606 21.3472 4.90045C21.466 4.48485 21.8222 4.24737 22.2972 4.36611C24.1971 4.72234 25.9188 5.4348 27.5219 6.50349C28.2937 7.03783 29.0062 7.57217 29.8967 8.22526C29.9561 7.98777 30.1342 7.80966 30.1342 7.63155C30.1342 6.80034 30.1342 6.02851 30.1342 5.19731C30.1342 4.90045 30.253 4.54423 30.4905 4.36611C31.4404 3.35679 32.4497 2.34748 33.459 1.33816C33.7559 1.04131 34.0527 0.922562 34.409 1.10068C34.7652 1.21942 34.8839 1.57565 34.8839 1.93188C34.8839 2.70371 34.8839 3.41617 34.8839 4.24737C35.6558 4.24737 36.4276 4.24737 37.1994 4.24737C37.615 4.24737 37.9119 4.36611 38.09 4.72234C38.2088 5.13794 38.09 5.4348 37.7932 5.67229C36.7838 6.62223 35.8339 7.63155 34.8839 8.58149C34.6465 8.81898 34.2902 8.93772 33.9934 8.93772C33.2215 8.99709 32.3903 8.93772 31.6185 8.93772C31.4404 8.93772 31.2029 9.11583 30.9654 9.17521C32.2716 10.6595 33.2215 12.1438 33.934 13.8656C34.6465 15.5873 35.0027 17.3091 35.1214 19.209C35.8339 19.209 36.5463 19.209 37.1994 19.209C37.7932 19.209 38.1494 19.5059 38.1494 19.9808C38.1494 20.4558 37.7932 20.7527 37.1994 20.7527C35.6558 20.7527 34.1121 20.7527 32.5685 20.7527C32.3903 20.7527 32.2122 20.7527 32.1529 20.7527C31.7966 22.0588 31.6185 23.365 31.1435 24.5524C29.5999 28.5303 26.75 31.1427 22.6534 32.3895C22.5347 32.3895 22.4753 32.4488 22.3566 32.4488C21.8816 32.5676 21.5254 32.3301 21.4066 31.9145C21.2879 31.4989 21.5254 31.1427 22.0003 30.9646C22.2972 30.8458 22.594 30.7864 22.8315 30.6677C27.3438 28.9459 29.8967 25.6211 30.4311 20.8714C30.4311 20.812 30.4311 20.812 30.4311 20.6933C29.778 20.6933 29.0655 20.6933 28.4124 20.6933C27.8187 20.6933 27.4625 20.3964 27.4625 19.9215C27.4625 19.4465 27.8187 19.1496 28.4124 19.1496C29.9561 19.1496 31.4404 19.1496 32.9841 19.1496C33.1622 19.1496 33.3403 19.1496 33.5184 19.1496C33.2809 15.7654 32.0935 12.7969 29.8967 10.3033C29.5405 10.6595 29.1843 11.0157 28.8281 11.372C28.8874 11.4313 28.9468 11.5501 29.0655 11.6688C30.1936 13.0344 31.0248 14.578 31.4998 16.2998C31.7373 17.0122 31.5591 17.4278 31.0842 17.606C30.6092 17.7247 30.253 17.4278 30.0749 16.7748C29.4811 15.2311 28.7093 13.8062 27.6406 12.5ZM22.1191 15.7654C20.3379 14.2812 17.2506 14.1624 15.1726 16.2998C13.154 18.4372 13.154 21.5839 15.232 23.6619C17.31 25.7399 20.516 25.7992 22.594 23.7806C24.7314 21.762 24.7314 18.6747 23.1878 16.7748C22.8909 17.0716 22.6534 17.3091 22.3566 17.606C22.1191 17.7841 22.1784 17.9622 22.2972 18.1997C22.7128 19.0309 22.8909 19.8621 22.6534 20.7527C22.1784 22.8307 20.0411 24.1368 18.0224 23.6025C15.9444 23.0681 14.6976 20.8714 15.2913 18.8528C15.9444 16.7748 18.1412 15.528 20.1004 16.3592C20.9316 16.7154 21.4066 16.4779 21.8222 15.8842C22.0003 15.8842 22.0597 15.8248 22.1191 15.7654ZM21.0504 18.9715C20.516 19.5059 20.0411 20.0402 19.5661 20.5152C19.2692 20.812 18.8536 20.812 18.5568 20.5152C18.2599 20.2183 18.2005 19.8621 18.438 19.5059C18.5568 19.3871 18.6755 19.2684 18.7943 19.1496C19.2099 18.734 19.6255 18.3184 20.0411 17.9028C18.913 17.4278 17.7849 17.7841 17.1912 18.6747C16.5975 19.5652 16.7163 20.7527 17.4881 21.5245C18.2599 22.2963 19.388 22.4151 20.3379 21.8213C21.1691 21.2276 21.5254 20.0996 21.0504 18.9715ZM31.6185 7.39406C32.2716 7.39406 32.8653 7.39406 33.459 7.39406C33.5778 7.39406 33.7559 7.39406 33.8153 7.33469C34.2902 6.85972 34.8246 6.32537 35.4183 5.73166C34.8839 5.73166 34.4683 5.73166 34.1121 5.73166C33.5778 5.73166 33.2809 5.4348 33.2809 4.90045C33.2809 4.48485 33.2809 4.06925 33.2809 3.53491C32.6872 4.12863 32.2122 4.6036 31.7373 5.07857C31.6779 5.13794 31.6185 5.25668 31.6185 5.37543C31.5591 6.08789 31.6185 6.6816 31.6185 7.39406Z" fill="white"/>
<path d="M3.00158 20.7525C2.34849 20.7525 1.63604 20.7525 0.923577 20.7525C0.329862 20.7525 -0.0263672 20.4557 -0.0263672 19.9807C-0.0263672 19.5057 0.329862 19.2682 0.864206 19.2089C2.58598 19.2089 4.24838 19.2089 5.97016 19.2089C6.20764 18.1995 6.32639 17.2496 6.62325 16.2996C6.86073 15.5278 7.21696 14.756 7.51382 14.0435C7.75131 13.5686 8.16691 13.3904 8.58251 13.6279C8.99811 13.8654 9.11685 14.281 8.81999 14.756C8.10753 16.1809 7.63256 17.6652 7.57319 19.2682C8.22628 19.2682 8.81999 19.2682 9.47308 19.2682C10.1855 19.2682 10.5418 19.5057 10.6011 20.0401C10.6011 20.5744 10.2449 20.8119 9.47308 20.8119C7.98879 20.8119 6.56387 20.8119 5.07959 20.8119C4.90147 20.8119 4.72336 20.8119 4.54524 20.8119C4.60461 22.0587 4.78273 23.2461 5.19833 24.3742C6.97948 29.5395 10.4824 32.8049 15.7665 34.1111C15.9446 34.1705 16.1821 34.2299 16.3602 34.3486C16.657 34.5861 16.7758 34.8829 16.5977 35.2392C16.4195 35.5954 16.1227 35.7735 15.7071 35.7141C13.8666 35.2985 12.0854 34.6455 10.4824 33.6361C6.20765 30.6676 3.71404 26.6303 3.12032 21.4056C3.12032 21.2275 3.06095 21.0494 3.06095 20.8713C3.06095 20.8713 3.06095 20.8119 3.00158 20.7525Z" fill="white"/>
<path d="M19.8041 35.9522C19.8041 36.6646 19.8041 37.3177 19.8041 38.0302C19.8041 38.6239 19.5073 38.9801 19.0323 38.9801C18.5573 38.9801 18.2604 38.6239 18.2604 38.0302C18.2604 36.4865 18.2604 34.9429 18.2604 33.3992C18.2604 33.2211 18.2604 33.043 18.2604 32.9242C17.4886 32.8055 16.7762 32.6867 16.0637 32.5086C11.2546 31.2618 8.10791 28.2933 6.62363 23.5435C6.56425 23.3654 6.50488 23.2467 6.50488 23.0686C6.50488 22.653 6.683 22.4155 7.03923 22.2967C7.39546 22.178 7.75169 22.2967 7.9298 22.653C7.98917 22.8311 8.04854 23.0092 8.10791 23.1873C9.41409 27.6995 13.6295 31.1431 18.2604 31.3212C18.2604 30.6681 18.2604 29.9557 18.2604 29.3026C18.2604 28.7089 18.5573 28.3526 18.9729 28.3526C19.4479 28.3526 19.7447 28.7089 19.7447 29.3026C19.7447 30.7869 19.7447 32.3305 19.7447 33.8148C19.7447 33.9929 19.7447 34.171 19.7447 34.4679C20.6947 34.2898 21.6446 34.171 22.5352 33.9929C24.1382 33.6367 25.5631 32.9836 26.9287 32.093C27.0474 32.0337 27.1662 31.9149 27.2849 31.8555C27.6412 31.7368 27.938 31.7962 28.1755 32.093C28.413 32.3899 28.3536 32.7461 28.1161 32.9836C27.9974 33.1023 27.8193 33.2211 27.6412 33.3398C25.3257 34.8241 22.7727 35.6553 20.0416 35.8928C20.0416 35.8928 19.9229 35.9522 19.8041 35.9522Z" fill="white"/>
<path d="M31.976 28.9461C31.2041 28.9461 30.9072 28.3524 31.2041 27.6992C31.7385 26.6305 32.2728 25.5024 32.7478 24.3743C32.926 23.8993 33.0447 23.3649 33.1635 22.8899C33.2822 22.4149 33.6385 22.1774 34.0541 22.2367C34.4697 22.3555 34.7072 22.7118 34.6478 23.2461C34.2916 25.1461 33.5791 26.868 32.5103 28.4711C32.3322 28.7086 32.0947 28.8867 31.976 28.9461Z" fill="white"/>
<path d="M12.2049 10.6593C12.0268 10.4812 11.7299 10.3031 11.6112 10.0062C11.433 9.64993 11.6705 9.35305 11.9674 9.11555C13.0955 8.40305 14.3424 7.8093 15.6487 7.51243C16.0643 7.39368 16.3612 7.51243 16.5393 7.86868C16.7768 8.2843 16.5987 8.81868 16.1237 8.9968C14.8768 9.35305 13.7487 9.82805 12.6799 10.5406C12.6205 10.5406 12.5018 10.5406 12.2049 10.6593Z" fill="white"/>
<path d="M10.8389 11.7874C10.8389 12.203 10.4826 12.4999 10.067 12.4999C9.65137 12.4999 9.35449 12.1436 9.35449 11.728C9.35449 11.3124 9.71074 11.0155 10.1264 11.0155C10.4826 11.0155 10.8389 11.3718 10.8389 11.7874Z" fill="white"/>
<path d="M30.6687 30.5492C30.6687 30.9648 30.3125 31.321 29.8969 31.321C29.4812 31.321 29.125 31.0242 29.125 30.6085C29.125 30.1929 29.4219 29.8367 29.8375 29.8367C30.3125 29.8367 30.6687 30.1335 30.6687 30.5492Z" fill="white"/>
</g>
<defs>
<clipPath id="clip0_1458_23898">
<rect width="37.9978" height="37.9978" fill="white" transform="translate(0.0332031 0.981445)"/>
</clipPath>
</defs>
</svg>
